<?xml version='1.0' encoding='utf-8'?>
<svg xmlns="http://www.w3.org/2000/svg" xmlns:ns1="http://www.w3.org/1999/xlink" class="card" face="TC" height="31.5492957746479" preserveAspectRatio="none" viewBox="-106 -164.5 212 329" width="50.1408450704225" x="25.07042253521125" y="15.77464788732395"><symbol id="SCT" preserveAspectRatio="xMinYMid" viewBox="-600 -600 1200 1200"><path d="M30 150C35 385 85 400 130 500L-130 500C-85 400 -35 385 -30 150A10 10 0 0 0 -50 150A210 210 0 1 1 -124 -51A10 10 0 0 0 -110 -65A230 230 0 1 1 110 -65A10 10 0 0 0 124 -51A210 210 0 1 1 50 150A10 10 0 0 0 30 150Z" fill="black" /></symbol><symbol id="VCT" preserveAspectRatio="xMinYMid" viewBox="-500 -500 1000 1000"><path d="M-260 430L-260 -430M-50 0L-50 -310A150 150 0 0 1 250 -310L250 310A150 150 0 0 1 -50 310Z" fill="none" stroke="black" stroke-linecap="square" stroke-miterlimit="1.5" stroke-width="80" /></symbol><rect fill="white" height="328" rx="19" ry="19" stroke="black" width="211" x="-105.5" y="-164" /><use height="50" x="-104" y="-145.5" ns1:href="#VCT" /><use height="50" x="54" y="-145.5" ns1:href="#VCT" /><use height="41.827" x="-99.913" y="-90.5" ns1:href="#SCT" /><use height="41.827" x="58.087" y="-90.5" ns1:href="#SCT" /><use height="40" x="-59.001" y="-117.551" ns1:href="#SCT" /><use height="40" x="19.001" y="-117.551" ns1:href="#SCT" /><use height="40" x="-59.001" y="-52.517" ns1:href="#SCT" /><use height="40" x="19.001" y="-52.517" ns1:href="#SCT" /><use height="40" x="-20" y="-85.034" ns1:href="#SCT" /><g transform="rotate(180)"><use height="50" x="-104" y="-145.5" ns1:href="#VCT" /><use height="50" x="54" y="-145.5" ns1:href="#VCT" /><use height="41.827" x="-99.913" y="-90.5" ns1:href="#SCT" /><use height="41.827" x="58.087" y="-90.5" ns1:href="#SCT" /><use height="40" x="-59.001" y="-117.551" ns1:href="#SCT" /><use height="40" x="19.001" y="-117.551" ns1:href="#SCT" /><use height="40" x="-59.001" y="-52.517" ns1:href="#SCT" /><use height="40" x="19.001" y="-52.517" ns1:href="#SCT" /><use height="40" x="-20" y="-85.034" ns1:href="#SCT" /></g></svg>