<?xml version='1.0' encoding='utf-8'?>
<svg xmlns="http://www.w3.org/2000/svg" xmlns:ns1="http://www.w3.org/1999/xlink" class="card" face="2D" height="31.5492957746479" preserveAspectRatio="none" viewBox="-106 -164.5 212 329" width="50.1408450704225" x="25.07042253521125" y="15.77464788732395"><symbol id="SD2" preserveAspectRatio="xMinYMid" viewBox="-600 -600 1200 1200"><path d="M-400 0C-350 0 0 -450 0 -500C0 -450 350 0 400 0C350 0 0 450 0 500C0 450 -350 0 -400 0Z" fill="red" /></symbol><symbol id="VD2" preserveAspectRatio="xMinYMid" viewBox="-500 -500 1000 1000"><path d="M-225 -225C-245 -265 -200 -460 0 -460C 200 -460 225 -325 225 -225C225 -25 -225 160 -225 460L225 460L225 300" fill="none" stroke="red" stroke-linecap="square" stroke-miterlimit="1.5" stroke-width="80" /></symbol><rect fill="white" height="328" rx="19" ry="19" stroke="black" width="211" x="-105.5" y="-164" /><use height="50" x="-104" y="-145.5" ns1:href="#VD2" /><use height="50" x="54" y="-145.5" ns1:href="#VD2" /><use height="41.827" x="-99.913" y="-90.5" ns1:href="#SD2" /><use height="41.827" x="58.087" y="-90.5" ns1:href="#SD2" /><use height="40" x="-20" y="-117.501" ns1:href="#SD2" /><g transform="rotate(180)"><use height="50" x="-104" y="-145.5" ns1:href="#VD2" /><use height="50" x="54" y="-145.5" ns1:href="#VD2" /><use height="41.827" x="-99.913" y="-90.5" ns1:href="#SD2" /><use height="41.827" x="58.087" y="-90.5" ns1:href="#SD2" /><use height="40" x="-20" y="-117.501" ns1:href="#SD2" /></g></svg>