<?xml version='1.0' encoding='utf-8'?>
<svg xmlns="http://www.w3.org/2000/svg" xmlns:ns1="http://www.w3.org/1999/xlink" class="card" face="5D" height="31.5492957746479" preserveAspectRatio="none" viewBox="-106 -164.5 212 329" width="50.1408450704225" x="25.07042253521125" y="15.77464788732395"><symbol id="SD5" preserveAspectRatio="xMinYMid" viewBox="-600 -600 1200 1200"><path d="M-400 0C-350 0 0 -450 0 -500C0 -450 350 0 400 0C350 0 0 450 0 500C0 450 -350 0 -400 0Z" fill="red" /></symbol><symbol id="VD5" preserveAspectRatio="xMinYMid" viewBox="-500 -500 1000 1000"><path d="M170 -460L-175 -460L-210 -115C-210 -115 -200 -200 0 -200C100 -200 255 -80 255 120C255 320 180 460 -20 460C-220 460 -255 285 -255 285" fill="none" stroke="red" stroke-linecap="square" stroke-miterlimit="1.5" stroke-width="80" /></symbol><rect fill="white" height="328" rx="19" ry="19" stroke="black" width="211" x="-105.5" y="-164" /><use height="50" x="-104" y="-145.5" ns1:href="#VD5" /><use height="50" x="54" y="-145.5" ns1:href="#VD5" /><use height="41.827" x="-99.913" y="-90.5" ns1:href="#SD5" /><use height="41.827" x="58.087" y="-90.5" ns1:href="#SD5" /><use height="40" x="-59.001" y="-117.501" ns1:href="#SD5" /><use height="40" x="19.001" y="-117.501" ns1:href="#SD5" /><use height="40" x="-20" y="-20" ns1:href="#SD5" /><g transform="rotate(180)"><use height="50" x="-104" y="-145.5" ns1:href="#VD5" /><use height="50" x="54" y="-145.5" ns1:href="#VD5" /><use height="41.827" x="-99.913" y="-90.5" ns1:href="#SD5" /><use height="41.827" x="58.087" y="-90.5" ns1:href="#SD5" /><use height="40" x="-59.001" y="-117.501" ns1:href="#SD5" /><use height="40" x="19.001" y="-117.501" ns1:href="#SD5" /></g></svg>