<?xml version='1.0' encoding='utf-8'?>
<svg xmlns="http://www.w3.org/2000/svg" xmlns:ns1="http://www.w3.org/1999/xlink" class="card" face="6H" height="31.5492957746479" preserveAspectRatio="none" viewBox="-106 -164.5 212 329" width="50.1408450704225" x="25.07042253521125" y="15.77464788732395"><symbol id="SH6" preserveAspectRatio="xMinYMid" viewBox="-600 -600 1200 1200"><path d="M0 -300C0 -400 100 -500 200 -500C300 -500 400 -400 400 -250C400 0 0 400 0 500C0 400 -400 0 -400 -250C-400 -400 -300 -500 -200 -500C-100 -500 0 -400 -0 -300Z" fill="red" /></symbol><symbol id="VH6" preserveAspectRatio="xMinYMid" viewBox="-500 -500 1000 1000"><path d="M-250 100A250 250 0 0 1 250 100L250 210A250 250 0 0 1 -250 210L-250 -210A250 250 0 0 1 0 -460C150 -460 180 -400 200 -375" fill="none" stroke="red" stroke-linecap="square" stroke-miterlimit="1.5" stroke-width="80" /></symbol><rect fill="white" height="328" rx="19" ry="19" stroke="black" width="211" x="-105.5" y="-164" /><use height="50" x="-104" y="-145.5" ns1:href="#VH6" /><use height="50" x="54" y="-145.5" ns1:href="#VH6" /><use height="41.827" x="-99.913" y="-90.5" ns1:href="#SH6" /><use height="41.827" x="58.087" y="-90.5" ns1:href="#SH6" /><use height="40" x="-59.001" y="-117.501" ns1:href="#SH6" /><use height="40" x="19.001" y="-117.501" ns1:href="#SH6" /><use height="40" x="-59.001" y="-20" ns1:href="#SH6" /><use height="40" x="19.001" y="-20" ns1:href="#SH6" /><g transform="rotate(180)"><use height="50" x="-104" y="-145.5" ns1:href="#VH6" /><use height="50" x="54" y="-145.5" ns1:href="#VH6" /><use height="41.827" x="-99.913" y="-90.5" ns1:href="#SH6" /><use height="41.827" x="58.087" y="-90.5" ns1:href="#SH6" /><use height="40" x="-59.001" y="-117.501" ns1:href="#SH6" /><use height="40" x="19.001" y="-117.501" ns1:href="#SH6" /></g></svg>