<?xml version="1.0" encoding="UTF-8" standalone="no"?>
<svg xmlns="http://www.w3.org/2000/svg" xmlns:xlink="http://www.w3.org/1999/xlink" class="card" face="TD" height="94mm" preserveAspectRatio="none" viewBox="-132 -180 264 360" width="69mm"><symbol id="SDT" viewBox="-600 -600 1200 1200" preserveAspectRatio="xMinYMid"><path d="M-400 0C-350 0 0 -450 0 -500C0 -450 350 0 400 0C350 0 0 450 0 500C0 450 -350 0 -400 0Z" fill="red"></path></symbol><symbol id="VDT" viewBox="-500 -500 1000 1000" preserveAspectRatio="xMinYMid"><path d="M-260 430L-260 -430M-50 0L-50 -310A150 150 0 0 1 250 -310L250 310A150 150 0 0 1 -50 310Z" stroke="red" stroke-width="80" stroke-linecap="square" stroke-miterlimit="1.5" fill="none"></path></symbol><rect x="-240" y="-336" width="480" height="672" fill="white"></rect><rect width="239" height="335" x="-119.5" y="-167.5" rx="12" ry="12" fill="white" stroke="black"></rect><use xlink:href="#VDT" height="70" x="-120" y="-154"></use><use xlink:href="#VDT" height="70" x="50" y="-154"></use><use xlink:href="#SDT" height="58.558" x="-114.279" y="-79"></use><use xlink:href="#SDT" height="58.558" x="55.721" y="-79"></use><use xlink:href="#SDT" height="40" x="-57.668" y="-105.668"></use><use xlink:href="#SDT" height="40" x="17.668" y="-105.668"></use><use xlink:href="#SDT" height="40" x="-57.668" y="-48.556"></use><use xlink:href="#SDT" height="40" x="17.668" y="-48.556"></use><use xlink:href="#SDT" height="40" x="-20" y="-77.112"></use><g transform="rotate(180)"><use xlink:href="#VDT" height="70" x="-120" y="-154"></use><use xlink:href="#VDT" height="70" x="50" y="-154"></use><use xlink:href="#SDT" height="58.558" x="-114.279" y="-79"></use><use xlink:href="#SDT" height="58.558" x="55.721" y="-79"></use><use xlink:href="#SDT" height="40" x="-57.668" y="-105.668"></use><use xlink:href="#SDT" height="40" x="17.668" y="-105.668"></use><use xlink:href="#SDT" height="40" x="-57.668" y="-48.556"></use><use xlink:href="#SDT" height="40" x="17.668" y="-48.556"></use><use xlink:href="#SDT" height="40" x="-20" y="-77.112"></use></g></svg>