<?xml version='1.0' encoding='utf-8'?>
<svg xmlns="http://www.w3.org/2000/svg" xmlns:ns1="http://www.w3.org/1999/xlink" class="card" face="3D" height="24.6153846153846" preserveAspectRatio="none" viewBox="-106 -164.5 212 329" width="39.1208791208791" x="19.56043956043955" y="12.3076923076923"><symbol id="SD3" preserveAspectRatio="xMinYMid" viewBox="-600 -600 1200 1200"><path d="M-400 0C-350 0 0 -450 0 -500C0 -450 350 0 400 0C350 0 0 450 0 500C0 450 -350 0 -400 0Z" fill="red" /></symbol><symbol id="VD3" preserveAspectRatio="xMinYMid" viewBox="-500 -500 1000 1000"><path d="M-250 -320L-250 -460L200 -460L-110 -80C-100 -90 -50 -120 0 -120C200 -120 250 0 250 150C250 350 170 460 -30 460C-230 460 -260 300 -260 300" fill="none" stroke="red" stroke-linecap="square" stroke-miterlimit="1.5" stroke-width="80" /></symbol><rect fill="white" height="328" rx="19" ry="19" stroke="black" width="211" x="-105.5" y="-164" /><use height="50" x="-104" y="-145.5" ns1:href="#VD3" /><use height="50" x="54" y="-145.5" ns1:href="#VD3" /><use height="41.827" x="-99.913" y="-90.5" ns1:href="#SD3" /><use height="41.827" x="58.087" y="-90.5" ns1:href="#SD3" /><use height="40" x="-20" y="-117.501" ns1:href="#SD3" /><use height="40" x="-20" y="-20" ns1:href="#SD3" /><g transform="rotate(180)"><use height="50" x="-104" y="-145.5" ns1:href="#VD3" /><use height="50" x="54" y="-145.5" ns1:href="#VD3" /><use height="41.827" x="-99.913" y="-90.5" ns1:href="#SD3" /><use height="41.827" x="58.087" y="-90.5" ns1:href="#SD3" /><use height="40" x="-20" y="-117.501" ns1:href="#SD3" /></g></svg>