<?xml version='1.0' encoding='utf-8'?>
<svg xmlns="http://www.w3.org/2000/svg" xmlns:ns1="http://www.w3.org/1999/xlink" class="card" face="4C" height="24.6153846153846" preserveAspectRatio="none" viewBox="-106 -164.5 212 329" width="39.1208791208791" x="19.56043956043955" y="12.3076923076923"><symbol id="SC4" preserveAspectRatio="xMinYMid" viewBox="-600 -600 1200 1200"><path d="M30 150C35 385 85 400 130 500L-130 500C-85 400 -35 385 -30 150A10 10 0 0 0 -50 150A210 210 0 1 1 -124 -51A10 10 0 0 0 -110 -65A230 230 0 1 1 110 -65A10 10 0 0 0 124 -51A210 210 0 1 1 50 150A10 10 0 0 0 30 150Z" fill="black" /></symbol><symbol id="VC4" preserveAspectRatio="xMinYMid" viewBox="-500 -500 1000 1000"><path d="M50 460L250 460M150 460L150 -460L-300 175L-300 200L270 200" fill="none" stroke="black" stroke-linecap="square" stroke-miterlimit="1.5" stroke-width="80" /></symbol><rect fill="white" height="328" rx="19" ry="19" stroke="black" width="211" x="-105.5" y="-164" /><use height="50" x="-104" y="-145.5" ns1:href="#VC4" /><use height="50" x="54" y="-145.5" ns1:href="#VC4" /><use height="41.827" x="-99.913" y="-90.5" ns1:href="#SC4" /><use height="41.827" x="58.087" y="-90.5" ns1:href="#SC4" /><use height="40" x="-59.001" y="-117.551" ns1:href="#SC4" /><use height="40" x="19.001" y="-117.551" ns1:href="#SC4" /><g transform="rotate(180)"><use height="50" x="-104" y="-145.5" ns1:href="#VC4" /><use height="50" x="54" y="-145.5" ns1:href="#VC4" /><use height="41.827" x="-99.913" y="-90.5" ns1:href="#SC4" /><use height="41.827" x="58.087" y="-90.5" ns1:href="#SC4" /><use height="40" x="-59.001" y="-117.551" ns1:href="#SC4" /><use height="40" x="19.001" y="-117.551" ns1:href="#SC4" /></g></svg>