<?xml version='1.0' encoding='utf-8'?>
<svg xmlns="http://www.w3.org/2000/svg" xmlns:ns1="http://www.w3.org/1999/xlink" class="card" face="6S" height="24.6153846153846" preserveAspectRatio="none" viewBox="-106 -164.5 212 329" width="39.1208791208791" x="19.56043956043955" y="12.3076923076923"><symbol id="SS6" preserveAspectRatio="xMinYMid" viewBox="-600 -600 1200 1200"><path d="M0 -500C100 -250 355 -100 355 185A150 150 0 0 1 55 185A10 10 0 0 0 35 185C35 385 85 400 130 500L-130 500C-85 400 -35 385 -35 185A10 10 0 0 0 -55 185A150 150 0 0 1 -355 185C-355 -100 -100 -250 0 -500Z" fill="black" /></symbol><symbol id="VS6" preserveAspectRatio="xMinYMid" viewBox="-500 -500 1000 1000"><path d="M-250 100A250 250 0 0 1 250 100L250 210A250 250 0 0 1 -250 210L-250 -210A250 250 0 0 1 0 -460C150 -460 180 -400 200 -375" fill="none" stroke="black" stroke-linecap="square" stroke-miterlimit="1.5" stroke-width="80" /></symbol><rect fill="white" height="328" rx="19" ry="19" stroke="black" width="211" x="-105.5" y="-164" /><use height="50" x="-104" y="-145.5" ns1:href="#VS6" /><use height="50" x="54" y="-145.5" ns1:href="#VS6" /><use height="41.827" x="-99.913" y="-90.5" ns1:href="#SS6" /><use height="41.827" x="58.087" y="-90.5" ns1:href="#SS6" /><use height="40" x="-59.001" y="-117.501" ns1:href="#SS6" /><use height="40" x="19.001" y="-117.501" ns1:href="#SS6" /><use height="40" x="-59.001" y="-20" ns1:href="#SS6" /><use height="40" x="19.001" y="-20" ns1:href="#SS6" /><g transform="rotate(180)"><use height="50" x="-104" y="-145.5" ns1:href="#VS6" /><use height="50" x="54" y="-145.5" ns1:href="#VS6" /><use height="41.827" x="-99.913" y="-90.5" ns1:href="#SS6" /><use height="41.827" x="58.087" y="-90.5" ns1:href="#SS6" /><use height="40" x="-59.001" y="-117.501" ns1:href="#SS6" /><use height="40" x="19.001" y="-117.501" ns1:href="#SS6" /></g></svg>